<?xml version="1.0" encoding="UTF-8" standalone="no"?>
<svg
   viewBox="0 0 1644.0175 720.00002"
   version="1.1"
   id="svg104"
   sodipodi:docname="logo (9).svg"
   width="1644.0176"
   height="720"
   inkscape:version="1.1 (c68e22c387, 2021-05-23)"
   xmlns:inkscape="http://www.inkscape.org/namespaces/inkscape"
   xmlns:sodipodi="http://sodipodi.sourceforge.net/DTD/sodipodi-0.dtd"
   xmlns="http://www.w3.org/2000/svg"
   xmlns:svg="http://www.w3.org/2000/svg"
   xmlns:rdf="http://www.w3.org/1999/02/22-rdf-syntax-ns#"
   xmlns:cc="http://creativecommons.org/ns#"
   xmlns:dc="http://purl.org/dc/elements/1.1/">
  <sodipodi:namedview
     id="namedview106"
     pagecolor="#ffffff"
     bordercolor="#666666"
     borderopacity="1.0"
     inkscape:pageshadow="2"
     inkscape:pageopacity="0.0"
     inkscape:pagecheckerboard="0"
     showgrid="false"
     fit-margin-top="0"
     fit-margin-left="0"
     fit-margin-right="0"
     fit-margin-bottom="0"
     inkscape:zoom="0.53475429"
     inkscape:cx="584.38054"
     inkscape:cy="238.42726"
     inkscape:window-width="1920"
     inkscape:window-height="1017"
     inkscape:window-x="1912"
     inkscape:window-y="-8"
     inkscape:window-maximized="1"
     inkscape:current-layer="svg104" />
  <defs
     id="defs4">
    <style
       id="style2">.cls-1{fill:#5a5b5e;}.cls-2{fill:#006da1;}</style>
  </defs>
  <title
     id="title6">logoUCC</title>
  <g
     id="Capa_2"
     data-name="Capa 2"
     transform="scale(3.1010423)">
    <g
       id="Capa_1-2"
       data-name="Capa 1">
      <rect
         class="cls-1"
         x="24.870001"
         y="46.290001"
         width="99.07"
         height="12.43"
         id="rect8" />
      <path
         class="cls-2"
         d="M 148.82,71.05 H 124 v 97.75 c 0,23.4 -13,48.4 -49.68,48.4 -36.47,0 -49.47,-25 -49.47,-48.4 V 71.05 H 0 v 3.29 l 9.28,2.89 v 91.57 c 0,39.22 25.14,63.38 65,63.38 39.86,0 65.24,-24.18 65.24,-63.38 l -0.17,-91.57 9.47,-3 z"
         id="path10" />
      <path
         class="cls-2"
         d="m 123.94,32.62 a 7.67,7.67 0 1 1 -7.69,-7.62 7.67,7.67 0 0 1 7.69,7.62 z"
         id="path12" />
      <path
         class="cls-2"
         d="M 40.22,32.62 A 7.67,7.67 0 1 1 32.53,25 a 7.67,7.67 0 0 1 7.69,7.62 z"
         id="path14" />
      <path
         class="cls-2"
         d="M 95.82,32.62 A 7.67,7.67 0 1 1 88.13,25 a 7.68,7.68 0 0 1 7.69,7.62 z"
         id="path16" />
      <path
         class="cls-2"
         d="M 68,32.62 A 7.67,7.67 0 1 1 60.35,25 7.67,7.67 0 0 1 68,32.62 Z"
         id="path18" />
      <polygon
         class="cls-2"
         points="71.42,0 71.42,9.09 62.23,9.09 62.23,15.4 71.42,15.4 71.42,24.8 77.73,24.8 77.73,15.4 86.59,15.4 86.59,9.09 77.73,9.09 77.73,0 "
         id="polygon20" />
      <polygon
         class="cls-1"
         points="46.32,159.13 46.32,170.55 41.71,170.55 41.71,151.89 45.7,151.89 52.34,159.68 58.98,151.89 62.96,151.89 62.96,170.55 58.35,170.55 58.35,159.13 52.72,165.88 51.92,165.88 "
         id="polygon22" />
      <path
         class="cls-1"
         d="m 49.64,181.79 v 5.7 h 3.92 a 2.85,2.85 0 1 0 0,-5.7 z m -4.62,-4 h 9.28 c 3.71,0 6.89,2.17 6.89,6.92 a 6.6,6.6 0 0 1 -6.89,6.8 h -4.66 v 4.94 H 45 Z"
         id="path24" />
      <polygon
         class="cls-1"
         points="97,185.01 101.29,177.79 106.41,177.79 99.31,189.24 99.31,196.45 94.69,196.45 94.69,189.26 87.58,177.79 92.73,177.79 "
         id="polygon26" />
      <path
         class="cls-1"
         d="m 97,166.48 a 5.26,5.26 0 1 0 -5.08,-5.23 5,5 0 0 0 5.08,5.23 z m 0,-14.87 a 9.61,9.61 0 1 1 -9.58,9.64 9.39,9.39 0 0 1 9.58,-9.64 z"
         id="path28" />
      <rect
         class="cls-1"
         x="94.57"
         y="159.61"
         width="4.8499999"
         height="3.21"
         id="rect30" />
      <path
         class="cls-1"
         d="m 114.65,141.31 a 28,28 0 0 1 -6.27,-2.29 c -7.61,-3.42 -19.08,-8.36 -34,1.74 -15,-10.1 -26.21,-5.16 -33.83,-1.74 a 26.37,26.37 0 0 1 -6.36,2.31 v 6.88 c 3,-0.18 6,-1.52 9.17,-2.94 7.37,-3.3 16,-8 28,0.32 v 61.8 c 1.08,0.07 1.91,0.09 3,0.09 1,0 1.8,0 3.16,-0.12 v -61.77 c 12,-8.31 20.74,-3.62 28.1,-0.32 3.14,1.4 6.1,2.73 9.07,2.94 z"
         id="path32" />
      <path
         class="cls-2"
         d="M 66.09,136.46 44.26,82.38 c -1,0.34 -4.39,1.59 -5.26,2 l 20.39,50.52 a 28.16,28.16 0 0 1 6.7,1.56 z"
         id="path34" />
      <path
         class="cls-2"
         d="m 34.21,119.53 v 7.79 l 9.68,10.26 a 41.46,41.46 0 0 1 5.58,-1.89 z"
         id="path36" />
      <path
         class="cls-2"
         d="m 34.21,100.73 v 4.38 L 53.32,135 c 0.87,-0.1 1.76,-0.17 2.67,-0.19 z"
         id="path38" />
      <path
         class="cls-2"
         d="m 75.53,77.36 c -0.4,0 -1.9,0 -2.3,0 H 71.6 v 0 61.64 c 0.84,0.49 1.93,1.15 2.8,1.74 0.86,-0.59 2,-1.25 2.83,-1.74 V 77.39 Z"
         id="path40" />
      <path
         class="cls-2"
         d="m 59,78.63 c -0.81,0.13 -1.51,0.26 -2.31,0.42 l 11.15,58.1 c 0.87,0.37 1.75,0.79 2.65,1.27 z"
         id="path42" />
      <path
         class="cls-2"
         d="m 82.73,136.46 21.83,-54.08 c 1,0.34 4.38,1.59 5.26,2 L 89.43,134.9 a 28,28 0 0 0 -6.7,1.56 z"
         id="path44" />
      <path
         class="cls-2"
         d="m 114.61,119.53 v 7.79 l -9.69,10.26 a 40.52,40.52 0 0 0 -5.58,-1.89 z"
         id="path46" />
      <path
         class="cls-2"
         d="m 114.61,100.73 v 4.38 L 95.49,135 c -0.86,-0.1 -1.75,-0.17 -2.67,-0.19 z"
         id="path48" />
      <path
         class="cls-2"
         d="m 89.81,78.63 c 0.81,0.13 1.5,0.26 2.31,0.42 L 81,137.15 c -0.86,0.37 -1.75,0.79 -2.64,1.27 z"
         id="path50" />
      <path
         class="cls-1"
         d="m 172.72,84.94 c 0,3.42 1.74,5.51 5.12,5.51 3.38,0 5.23,-2.16 5.23,-5.51 V 71.81 h 5.85 v 13.52 c 0,5.68 -3.9,10.56 -11.08,10.56 -7.18,0 -11,-4.43 -11,-10.56 V 71.81 h 5.86 z"
         id="path52" />
      <polygon
         class="cls-1"
         points="197.22,71.81 202.31,71.81 214.22,86.2 214.22,71.81 220.08,71.81 220.08,95.5 215.03,95.5 203.08,81.11 203.08,95.5 197.22,95.5 "
         id="polygon54" />
      <rect
         class="cls-1"
         x="228.81"
         y="71.809998"
         width="5.8499999"
         height="23.690001"
         id="rect56" />
      <polygon
         class="cls-1"
         points="259.81,71.81 266.26,71.81 257.13,95.5 249.71,95.5 240.76,71.81 247.17,71.81 253.4,89.93 "
         id="polygon58" />
      <polygon
         class="cls-1"
         points="289.7,76.9 277.68,76.9 277.68,80.97 287.16,80.97 287.16,85.89 277.68,85.89 277.68,90.42 289.7,90.42 289.7,95.5 272.1,95.5 272.1,71.81 289.7,71.81 "
         id="polygon60" />
      <path
         class="cls-1"
         d="m 304.53,76.9 v 5.85 h 5.3 A 2.85,2.85 0 0 0 313,79.82 2.81,2.81 0 0 0 309.87,76.9 Z m 15.3,18.78 a 4.44,4.44 0 0 1 -1.54,0.17 c -5.43,0 -10.1,-6 -11.8,-8.4 h -2 v 8 h -5.85 V 71.81 h 11.25 c 5.23,0 9.1,2.27 9.1,7.8 0,3.73 -2.62,6.41 -6.21,7.15 2,2 4.22,4 6.41,4 h 0.6 z"
         id="path62" />
      <path
         class="cls-1"
         d="m 332.09,85.29 c -3.7,-1 -5.47,-3.13 -5.47,-6.41 0,-4.11 3.24,-7.38 9.68,-7.38 6.07,0 8.05,2.82 9.06,4.73 l -3.91,2.9 a 5.94,5.94 0 0 0 -5.39,-2.62 c -2.41,0 -3.49,0.8 -3.49,1.95 0,1.15 0.7,1.47 2.16,1.88 l 4.19,1.26 c 4.35,1.29 6.34,3.27 6.34,6.55 0,4.56 -3.84,7.7 -9.76,7.7 A 19.23,19.23 0 0 1 327,93.79 l 1.36,-5.29 a 13.75,13.75 0 0 0 7.25,2.33 c 2.37,0 3.65,-1 3.65,-2.26 0,-1 -1,-1.61 -2.75,-2.1 z"
         id="path64" />
      <rect
         class="cls-1"
         x="352.85001"
         y="71.809998"
         width="5.8499999"
         height="23.690001"
         id="rect66" />
      <path
         class="cls-1"
         d="m 373.41,76.9 v 13.52 h 4.14 c 5.23,0 6.52,-1.71 6.52,-6.73 0,-5.02 -1.29,-6.79 -6.52,-6.79 z m -5.85,-5.09 h 10.38 c 8.4,0 12.15,3.14 12.15,11.88 0,8.74 -3.75,11.81 -12.15,11.81 h -10.38 z"
         id="path68" />
      <path
         class="cls-1"
         d="m 403.53,86.86 h 7 l -3.41,-9.27 z m 0.14,-15 h 6.86 l 9,23.69 h -5.93 l -1.6,-4.4 h -9.93 l -1.64,4.35 h -5.92 z"
         id="path70" />
      <path
         class="cls-1"
         d="m 431.2,76.9 v 13.52 h 4.14 c 5.23,0 6.52,-1.71 6.52,-6.73 0,-5.02 -1.29,-6.79 -6.52,-6.79 z m -5.86,-5.09 h 10.39 c 8.39,0 12.16,3.14 12.16,11.88 0,8.74 -3.77,11.81 -12.16,11.81 h -10.39 z"
         id="path72" />
      <path
         class="cls-2"
         d="m 196.27,128 c -1.69,-3.39 -3.88,-5.87 -8.79,-5.87 -6.55,0 -10.85,4.36 -10.85,11.88 0,7.52 4.42,11.76 11,11.76 a 18.33,18.33 0 0 0 12,-4.85 l 4.72,7.58 a 26.11,26.11 0 0 1 -17.09,6.67 c -12.19,0 -21.1,-7.88 -21.1,-21.16 0,-13.28 9.1,-21.29 21.28,-21.29 9.46,0 14.92,5 16.85,10.43 z"
         id="path74" />
      <path
         class="cls-2"
         d="m 223.44,122.17 v 10.19 h 9.21 c 3.34,0 5.46,-2.06 5.46,-5.09 0,-3.03 -2.12,-5.1 -5.46,-5.1 z m 26.62,32.69 a 7.54,7.54 0 0 1 -2.67,0.3 c -9.46,0 -17.58,-10.49 -20.55,-14.61 h -3.4 v 14 h -10.19 v -41.23 h 19.59 c 9.09,0 15.82,3.94 15.82,13.58 0,6.49 -4.54,11.16 -10.79,12.43 3.46,3.52 7.33,7 11.16,7 h 1 z"
         id="path76" />
      <rect
         class="cls-2"
         x="260.94"
         y="113.32"
         width="10.18"
         height="41.23"
         id="rect78" />
      <path
         class="cls-2"
         d="m 289.7,136.79 c -6.42,-1.76 -9.52,-5.46 -9.52,-11.16 0,-7.15 5.64,-12.85 16.86,-12.85 10.55,0 14,4.91 15.76,8.24 l -6.79,5 c -1,-1.34 -3.27,-4.55 -9.4,-4.55 -4.18,0 -6.06,1.39 -6.06,3.39 0,1.82 1.21,2.55 3.76,3.28 l 7.28,2.18 c 7.57,2.24 11,5.7 11,11.4 0,7.94 -6.67,13.4 -17,13.4 a 33.43,33.43 0 0 1 -14.79,-3.58 l 2.37,-9.21 a 24,24 0 0 0 12.61,4.06 c 4.12,0 6.36,-1.7 6.36,-3.94 0,-1.82 -1.82,-2.79 -4.79,-3.64 z"
         id="path80" />
      <polygon
         class="cls-2"
         points="330.81,122.23 318.15,122.23 318.15,113.31 353.31,113.31 353.31,122.23 341,122.23 341,154.54 330.81,154.54 "
         id="polygon82" />
      <path
         class="cls-2"
         d="m 383.07,109.68 h -8.43 l 4.91,-9.57 h 10 z m -3.82,35.9 c 6.67,0 11.22,-5 11.22,-11.58 0,-6.58 -4.55,-11.64 -11.22,-11.64 -6.49,0 -11.22,5 -11.22,11.64 0,6.64 4.73,11.58 11.22,11.58 z m -0.06,-32.87 c 12.19,0 21.28,9.1 21.28,21.29 0,12.19 -9.09,21.16 -21.28,21.16 A 20.69,20.69 0 0 1 358,134 c 0,-12.19 9.12,-21.29 21.19,-21.29 z"
         id="path84" />
      <path
         class="cls-2"
         d="m 429.16,146.43 c 3.82,0 5.69,-1.46 5.69,-4.25 0,-3 -2.18,-4.43 -6.18,-4.43 h -8.85 v 8.68 z m -2.91,-16.92 c 3.63,0 5.69,-1.21 5.69,-4 0,-2.79 -1.93,-4.06 -5.57,-4.06 h -6.55 v 8.06 z m -16.61,-16.19 h 18.24 c 9.16,0 14.56,3.52 14.56,11.09 a 9.06,9.06 0 0 1 -5.95,8.68 c 5.77,1.21 9.22,4.49 9.22,10.3 0,6.92 -5.34,11.16 -15,11.16 h -21 z"
         id="path86" />
      <path
         class="cls-2"
         d="m 465,139.52 h 12.19 l -5.95,-16.13 z m 0.24,-26.2 h 11.95 l 15.64,41.23 H 482.47 L 479.69,147 H 462.4 l -2.85,7.58 h -10.3 z"
         id="path88" />
      <polygon
         class="cls-2"
         points="509.65,145.7 530.15,145.7 530.15,154.55 499.47,154.55 499.47,113.32 509.65,113.32 "
         id="polygon90" />
      <path
         class="cls-2"
         d="m 196.24,187.05 c -1.7,-3.39 -3.88,-5.87 -8.78,-5.87 -6.55,0 -10.84,4.36 -10.84,11.87 0,7.51 4.42,11.75 11,11.75 a 18.29,18.29 0 0 0 12,-4.84 l 4.72,7.56 a 26,26 0 0 1 -17.08,6.66 c -12.17,0 -21.07,-7.87 -21.07,-21.13 0,-13.26 9.08,-21.26 21.26,-21.26 9.44,0 14.89,5 16.83,10.42 z"
         id="path92" />
      <path
         class="cls-2"
         d="m 232,204.62 c 6.66,0 11.2,-5 11.2,-11.57 0,-6.57 -4.54,-11.63 -11.2,-11.63 -6.48,0 -11.2,5 -11.2,11.63 0,6.63 4.71,11.57 11.2,11.57 z m -0.06,-32.83 c 12.17,0 21.25,9.09 21.25,21.26 0,12.17 -9.08,21.13 -21.25,21.13 A 20.67,20.67 0 0 1 210.8,193.05 c -0.01,-12.17 9.08,-21.26 21.13,-21.26 z"
         id="path94" />
      <polygon
         class="cls-2"
         points="272.5,204.74 292.97,204.74 292.97,213.58 262.33,213.58 262.33,172.4 272.5,172.4 "
         id="polygon96" />
      <polygon
         class="cls-2"
         points="348.5,172.4 357.35,172.4 378.06,197.41 378.06,172.4 388.23,172.4 388.23,213.58 379.45,213.58 358.67,188.57 358.67,213.58 348.5,213.58 "
         id="polygon98" />
      <path
         class="cls-2"
         d="m 322,168.76 h -8.41 l 4.9,-9.57 h 10 z m -3.81,35.85 c 6.66,0 11.2,-5 11.2,-11.57 0,-6.57 -4.54,-11.62 -11.2,-11.62 -6.48,0 -11.21,5 -11.21,11.62 0,6.62 4.68,11.57 11.16,11.57 z m -0.06,-32.83 c 12.17,0 21.25,9.09 21.25,21.26 0,12.17 -9.08,21.14 -21.25,21.14 A 20.67,20.67 0 0 1 296.94,193 c 0,-12.13 9.06,-21.22 21.14,-21.22 z"
         id="path100" />
    </g>
  </g>
  <metadata
     id="metadata923">
    <rdf:RDF>
      <cc:Work
         rdf:about="">
        <dc:title>logoUCC</dc:title>
      </cc:Work>
    </rdf:RDF>
  </metadata>
</svg>
